<mxfile host="app.diagrams.net" agent="Mozilla/5.0 (X11; Linux x86_64) AppleWebKit/537.36 (KHTML, like Gecko) Chrome/127.0.0.0 Safari/537.36" version="24.7.5">
  <diagram id="C5RBs43oDa-KdzZeNtuy" name="Page-1">
    <mxGraphModel dx="1441" dy="1120" grid="1" gridSize="10" guides="1" tooltips="1" connect="1" arrows="1" fold="1" page="0" pageScale="1" pageWidth="827" pageHeight="1169" math="0" shadow="0">
      <root>
        <mxCell id="WIyWlLk6GJQsqaUBKTNV-0" />
        <mxCell id="WIyWlLk6GJQsqaUBKTNV-1" parent="WIyWlLk6GJQsqaUBKTNV-0" />
        <mxCell id="-aAU6rHtf3rU6TBoeAKp-1" value="&lt;b&gt;GUI&lt;/b&gt;" style="swimlane;fontStyle=0;childLayout=stackLayout;horizontal=1;startSize=30;horizontalStack=0;resizeParent=1;resizeParentMax=0;resizeLast=0;collapsible=1;marginBottom=0;whiteSpace=wrap;html=1;labelBackgroundColor=none;fillColor=#FAE5C7;strokeColor=#0F8B8D;fontColor=#143642;" parent="WIyWlLk6GJQsqaUBKTNV-1" vertex="1">
          <mxGeometry x="340" y="150" width="160" height="130" as="geometry">
            <mxRectangle x="340" y="150" width="60" height="30" as="alternateBounds" />
          </mxGeometry>
        </mxCell>
        <mxCell id="-aAU6rHtf3rU6TBoeAKp-2" value="&lt;u&gt;Attributes:&lt;/u&gt;&lt;div&gt;&lt;br&gt;&lt;/div&gt;" style="text;strokeColor=none;fillColor=none;align=left;verticalAlign=middle;spacingLeft=4;spacingRight=4;overflow=hidden;points=[[0,0.5],[1,0.5]];portConstraint=eastwest;rotatable=0;whiteSpace=wrap;html=1;labelBackgroundColor=none;fontColor=#143642;recursiveResize=0;" parent="-aAU6rHtf3rU6TBoeAKp-1" vertex="1">
          <mxGeometry y="30" width="160" height="40" as="geometry" />
        </mxCell>
        <mxCell id="-aAU6rHtf3rU6TBoeAKp-5" value="&lt;u&gt;Behaviors:&lt;/u&gt;&lt;div&gt;&lt;u&gt;start()&lt;br&gt;&lt;/u&gt;&lt;div&gt;startUser()&lt;/div&gt;&lt;/div&gt;" style="text;strokeColor=#0F8B8D;fillColor=none;align=left;verticalAlign=middle;spacingLeft=4;spacingRight=4;overflow=hidden;points=[[0,0.5],[1,0.5]];portConstraint=eastwest;rotatable=0;whiteSpace=wrap;html=1;labelBackgroundColor=none;fontColor=#143642;" parent="-aAU6rHtf3rU6TBoeAKp-1" vertex="1">
          <mxGeometry y="70" width="160" height="60" as="geometry" />
        </mxCell>
        <mxCell id="-aAU6rHtf3rU6TBoeAKp-6" value="&lt;b&gt;User&lt;/b&gt;" style="swimlane;fontStyle=0;childLayout=stackLayout;horizontal=1;startSize=30;horizontalStack=0;resizeParent=1;resizeParentMax=0;resizeLast=0;collapsible=1;marginBottom=0;whiteSpace=wrap;html=1;labelBackgroundColor=none;fillColor=#FAE5C7;strokeColor=#0F8B8D;fontColor=#143642;" parent="WIyWlLk6GJQsqaUBKTNV-1" vertex="1">
          <mxGeometry x="680" y="150" width="190" height="140" as="geometry">
            <mxRectangle x="340" y="150" width="60" height="30" as="alternateBounds" />
          </mxGeometry>
        </mxCell>
        <mxCell id="-aAU6rHtf3rU6TBoeAKp-7" value="&lt;u&gt;Attributes:&lt;/u&gt;&lt;div&gt;- Saved Data (predictions/files&lt;/div&gt;" style="text;strokeColor=none;fillColor=none;align=left;verticalAlign=middle;spacingLeft=4;spacingRight=4;overflow=hidden;points=[[0,0.5],[1,0.5]];portConstraint=eastwest;rotatable=0;whiteSpace=wrap;html=1;labelBackgroundColor=none;fontColor=#143642;recursiveResize=0;" parent="-aAU6rHtf3rU6TBoeAKp-6" vertex="1">
          <mxGeometry y="30" width="190" height="40" as="geometry" />
        </mxCell>
        <mxCell id="-aAU6rHtf3rU6TBoeAKp-8" value="&lt;u&gt;Behaviors:&lt;/u&gt;&lt;div&gt;&lt;u&gt;logIn()&lt;br&gt;&lt;/u&gt;&lt;div&gt;requestStockInfo()&lt;/div&gt;&lt;/div&gt;&lt;div&gt;getCSV()&lt;/div&gt;" style="text;strokeColor=#0F8B8D;fillColor=none;align=left;verticalAlign=middle;spacingLeft=4;spacingRight=4;overflow=hidden;points=[[0,0.5],[1,0.5]];portConstraint=eastwest;rotatable=0;whiteSpace=wrap;html=1;labelBackgroundColor=none;fontColor=#143642;" parent="-aAU6rHtf3rU6TBoeAKp-6" vertex="1">
          <mxGeometry y="70" width="190" height="70" as="geometry" />
        </mxCell>
        <mxCell id="-aAU6rHtf3rU6TBoeAKp-10" value="&lt;b&gt;Stock&lt;/b&gt;" style="swimlane;fontStyle=0;childLayout=stackLayout;horizontal=1;startSize=30;horizontalStack=0;resizeParent=1;resizeParentMax=0;resizeLast=0;collapsible=1;marginBottom=0;whiteSpace=wrap;html=1;labelBackgroundColor=none;fillColor=#FAE5C7;strokeColor=#0F8B8D;fontColor=#143642;" parent="WIyWlLk6GJQsqaUBKTNV-1" vertex="1">
          <mxGeometry x="680" y="360" width="160" height="130" as="geometry">
            <mxRectangle x="340" y="150" width="60" height="30" as="alternateBounds" />
          </mxGeometry>
        </mxCell>
        <mxCell id="-aAU6rHtf3rU6TBoeAKp-11" value="&lt;u&gt;Attributes:&lt;/u&gt;&lt;div&gt;- Stock Name&lt;/div&gt;&lt;div&gt;- CSVFile&lt;/div&gt;" style="text;strokeColor=none;fillColor=none;align=left;verticalAlign=middle;spacingLeft=4;spacingRight=4;overflow=hidden;points=[[0,0.5],[1,0.5]];portConstraint=eastwest;rotatable=0;whiteSpace=wrap;html=1;labelBackgroundColor=none;fontColor=#143642;recursiveResize=0;" parent="-aAU6rHtf3rU6TBoeAKp-10" vertex="1">
          <mxGeometry y="30" width="160" height="60" as="geometry" />
        </mxCell>
        <mxCell id="-aAU6rHtf3rU6TBoeAKp-12" value="&lt;u&gt;Behaviors:&lt;/u&gt;&lt;div&gt;&lt;br&gt;&lt;/div&gt;" style="text;strokeColor=#0F8B8D;fillColor=none;align=left;verticalAlign=middle;spacingLeft=4;spacingRight=4;overflow=hidden;points=[[0,0.5],[1,0.5]];portConstraint=eastwest;rotatable=0;whiteSpace=wrap;html=1;labelBackgroundColor=none;fontColor=#143642;" parent="-aAU6rHtf3rU6TBoeAKp-10" vertex="1">
          <mxGeometry y="90" width="160" height="40" as="geometry" />
        </mxCell>
        <mxCell id="cOPkHs-fNN-ue7OmICC3-0" value="&lt;b&gt;Online Account&lt;/b&gt;" style="swimlane;fontStyle=0;childLayout=stackLayout;horizontal=1;startSize=30;horizontalStack=0;resizeParent=1;resizeParentMax=0;resizeLast=0;collapsible=1;marginBottom=0;whiteSpace=wrap;html=1;labelBackgroundColor=none;fillColor=#FAE5C7;strokeColor=#0F8B8D;fontColor=#143642;" parent="WIyWlLk6GJQsqaUBKTNV-1" vertex="1">
          <mxGeometry x="960" y="150" width="170" height="150" as="geometry">
            <mxRectangle x="340" y="150" width="60" height="30" as="alternateBounds" />
          </mxGeometry>
        </mxCell>
        <mxCell id="cOPkHs-fNN-ue7OmICC3-1" value="&lt;u&gt;Attributes:&lt;/u&gt;&lt;div&gt;- User Info&lt;br&gt;&lt;div&gt;- API Key&lt;/div&gt;&lt;/div&gt;" style="text;strokeColor=none;fillColor=none;align=left;verticalAlign=middle;spacingLeft=4;spacingRight=4;overflow=hidden;points=[[0,0.5],[1,0.5]];portConstraint=eastwest;rotatable=0;whiteSpace=wrap;html=1;labelBackgroundColor=none;fontColor=#143642;recursiveResize=0;" parent="cOPkHs-fNN-ue7OmICC3-0" vertex="1">
          <mxGeometry y="30" width="170" height="60" as="geometry" />
        </mxCell>
        <mxCell id="cOPkHs-fNN-ue7OmICC3-2" value="&lt;u&gt;Behaviors:&lt;/u&gt;&lt;div&gt;requestOnlineStockData()&lt;/div&gt;&lt;div&gt;saveStockData()&lt;/div&gt;" style="text;strokeColor=#0F8B8D;fillColor=none;align=left;verticalAlign=middle;spacingLeft=4;spacingRight=4;overflow=hidden;points=[[0,0.5],[1,0.5]];portConstraint=eastwest;rotatable=0;whiteSpace=wrap;html=1;labelBackgroundColor=none;fontColor=#143642;" parent="cOPkHs-fNN-ue7OmICC3-0" vertex="1">
          <mxGeometry y="90" width="170" height="60" as="geometry" />
        </mxCell>
        <mxCell id="9GAgxsF1SugLrXKN7aPa-4" value="CSV Object" style="rounded=0;whiteSpace=wrap;html=1;" vertex="1" parent="WIyWlLk6GJQsqaUBKTNV-1">
          <mxGeometry x="995" y="25" width="90" height="30" as="geometry" />
        </mxCell>
        <mxCell id="9GAgxsF1SugLrXKN7aPa-5" value="" style="endArrow=classic;startArrow=classic;html=1;rounded=0;entryX=0;entryY=0.5;entryDx=0;entryDy=0;exitX=0.5;exitY=0;exitDx=0;exitDy=0;" edge="1" parent="WIyWlLk6GJQsqaUBKTNV-1" source="-aAU6rHtf3rU6TBoeAKp-6" target="9GAgxsF1SugLrXKN7aPa-4">
          <mxGeometry width="50" height="50" relative="1" as="geometry">
            <mxPoint x="840" y="200" as="sourcePoint" />
            <mxPoint x="890" y="150" as="targetPoint" />
            <Array as="points">
              <mxPoint x="775" y="40" />
            </Array>
          </mxGeometry>
        </mxCell>
        <mxCell id="9GAgxsF1SugLrXKN7aPa-7" value="" style="endArrow=classic;html=1;rounded=0;entryX=1;entryY=0;entryDx=0;entryDy=0;entryPerimeter=0;exitX=-0.018;exitY=0.683;exitDx=0;exitDy=0;exitPerimeter=0;" edge="1" parent="WIyWlLk6GJQsqaUBKTNV-1" source="cOPkHs-fNN-ue7OmICC3-1" target="-aAU6rHtf3rU6TBoeAKp-8">
          <mxGeometry width="50" height="50" relative="1" as="geometry">
            <mxPoint x="958" y="224.5" as="sourcePoint" />
            <mxPoint x="840" y="224.5" as="targetPoint" />
          </mxGeometry>
        </mxCell>
        <mxCell id="9GAgxsF1SugLrXKN7aPa-9" value="" style="endArrow=classic;html=1;rounded=0;entryX=1.006;entryY=0.1;entryDx=0;entryDy=0;entryPerimeter=0;" edge="1" parent="WIyWlLk6GJQsqaUBKTNV-1" target="-aAU6rHtf3rU6TBoeAKp-5">
          <mxGeometry width="50" height="50" relative="1" as="geometry">
            <mxPoint x="680" y="227" as="sourcePoint" />
            <mxPoint x="500.00000000000006" y="220" as="targetPoint" />
          </mxGeometry>
        </mxCell>
        <mxCell id="9GAgxsF1SugLrXKN7aPa-12" value="" style="endArrow=classic;html=1;rounded=0;exitX=-0.025;exitY=0.733;exitDx=0;exitDy=0;exitPerimeter=0;entryX=0.5;entryY=1;entryDx=0;entryDy=0;entryPerimeter=0;" edge="1" parent="WIyWlLk6GJQsqaUBKTNV-1" source="-aAU6rHtf3rU6TBoeAKp-11" target="-aAU6rHtf3rU6TBoeAKp-5">
          <mxGeometry width="50" height="50" relative="1" as="geometry">
            <mxPoint x="420" y="440" as="sourcePoint" />
            <mxPoint x="420" y="278" as="targetPoint" />
            <Array as="points">
              <mxPoint x="420" y="434" />
            </Array>
          </mxGeometry>
        </mxCell>
        <mxCell id="9GAgxsF1SugLrXKN7aPa-13" value="" style="endArrow=classic;html=1;rounded=0;entryX=0.5;entryY=0;entryDx=0;entryDy=0;" edge="1" parent="WIyWlLk6GJQsqaUBKTNV-1" target="-aAU6rHtf3rU6TBoeAKp-10">
          <mxGeometry width="50" height="50" relative="1" as="geometry">
            <mxPoint x="760" y="280" as="sourcePoint" />
            <mxPoint x="840" y="290" as="targetPoint" />
          </mxGeometry>
        </mxCell>
        <mxCell id="9GAgxsF1SugLrXKN7aPa-15" value="" style="endArrow=classic;startArrow=classic;html=1;rounded=0;entryX=0.5;entryY=1;entryDx=0;entryDy=0;" edge="1" parent="WIyWlLk6GJQsqaUBKTNV-1" target="9GAgxsF1SugLrXKN7aPa-4">
          <mxGeometry width="50" height="50" relative="1" as="geometry">
            <mxPoint x="1040" y="150" as="sourcePoint" />
            <mxPoint x="1090" y="100" as="targetPoint" />
          </mxGeometry>
        </mxCell>
      </root>
    </mxGraphModel>
  </diagram>
</mxfile>
